<?xml version="1.0" standalone="no"?><!DOCTYPE svg PUBLIC "-//W3C//DTD SVG 1.1//EN" "http://www.w3.org/Graphics/SVG/1.1/DTD/svg11.dtd"><svg class="icon" width="48px" height="48.00px" viewBox="0 0 1024 1024" version="1.1" xmlns="http://www.w3.org/2000/svg"><path fill="#f4ea2a" d="M512.2 104.7c107.3 0 194 87.2 194 194s-86.6 194.5-194 194.5-194-87.2-194-194.5 86.7-194 194-194m0-39.2c-129.1 0-233.1 104.5-233.1 233.1s104.5 233.1 233.1 233.1 233.1-104.5 233.1-233.1-104-233.1-233.1-233.1z"  /><path fill="#f4ea2a" d="M967.2 884c-26.8-138.6-110.7-257.2-229.8-324.8-3.9-1.7-7.8-3.9-12.3-6.1-9.5-5-19-10.1-29.1-14l-6.7-2.8c-2.2-1.1-4.5-1.7-7.3-1.7-9.5 0-17.3 7.8-17.3 17.3 0 7.3 4.5 12.9 10.1 15.7l6.1 2.8c2.8 1.7 6.1 2.8 9.5 4.5 9.5 4.5 19.6 9.5 28.5 15.1l0.6 0.6C830.3 653.1 908 762.7 932 890.7c1.7 8.9-0.6 16.8-6.7 25.2-4.5 5.6-12.3 9.5-20.7 9.5H116.4c-8.4 0-16.2-3.4-20.7-9.5l-0.6-0.6c-6.7-6.7-7.8-16.8-6.1-24C127 695 287.5 548.5 479.8 534.6h1.1c7.3-1.7 12.9-1.7 20.7-1.7h10.1v-34.1l-15.1-0.6c-7.3 0-13.4-0.6-20.7 1.7C270.1 516.7 97.4 674.9 56.6 884c-4.5 17.9-0.6 36.3 11.2 53.1l0.6 0.6c11.7 14 30.2 22.9 48.6 22.9h788.2c17.9 0 36.3-8.9 48.1-22.9 13.9-16.8 19-35.3 13.9-53.7z"  /></svg>